<?xml version="1.0" encoding="utf-8"?>
<!-- Generator: Adobe Illustrator 25.0.1, SVG Export Plug-In . SVG Version: 6.00 Build 0)  -->
<svg version="1.1" id="Layer_1" xmlns="http://www.w3.org/2000/svg" xmlns:xlink="http://www.w3.org/1999/xlink" x="0px" y="0px"
	 viewBox="0 0 200 200" style="enable-background:new 0 0 200 200;" xml:space="preserve">
<style type="text/css">
	.st0{fill:#8CE287;}
</style>
<path class="st0" d="M154.6,25.9c12.1,7.8,25.1,14,33.4,24.7c8.4,10.7,12.1,25.7,8.8,38.8c-3.2,13.1-13.8,24.1-16.3,45.6
	c-2.6,21.5,2.8,53.6-6,61.1c-8.9,7.5-31.9-9.3-53-12.8c-21.2-3.3-40.7,6.9-59.2,5.4c-18.7-1.4-36.6-14.4-48-32.5
	C2.8,138-2.2,114.9,6,96.7c8.2-18.1,29.7-31.1,42.9-45.9C62.3,36,67.3,19.5,77.6,10.4c10.4-9,26.2-10.4,39.8-6.2
	C131.1,8.3,142.5,18,154.6,25.9z"/>
</svg>
