<svg xmlns="http://www.w3.org/2000/svg" viewBox="0 0 461 988.49"><defs><style>.cls-1{fill:#999;}.cls-2{fill:#fff;}.cls-3{fill:#666;}.cls-4{fill:#4d4d4d;}.cls-5{fill:#b3b3b3;}</style></defs><g id="Castle_copy" data-name="Castle copy"><polygon class="cls-1" points="129.52 116.04 87.89 84.02 105.62 20.61 146.51 51.22 129.52 116.04"/><polygon class="cls-1" points="194.8 105.12 152.6 73.34 168.83 10.4 210.26 40.79 194.8 105.12"/><polygon class="cls-2" points="230.46 937.74 0 988.49 54.77 95.92 230.47 66.33 230.46 937.74"/><polygon class="cls-2" points="102.5 87.88 54.77 95.92 58.92 28.21 105.52 20.55 102.5 87.88"/><polygon class="cls-2" points="230.47 66.33 183.45 74.24 184.56 7.55 230.47 0 230.47 66.33"/><polygon class="cls-2" points="166.73 77.06 119.36 85.04 121.97 17.84 168.22 10.24 166.73 77.06"/><polygon class="cls-3" points="99.99 347.7 90.78 349.4 95.25 249.65 104.16 248.06 99.99 347.7"/><polygon class="cls-4" points="177.21 333.52 168.09 335.19 170.08 236.34 178.91 234.77 177.21 333.52"/><polygon class="cls-2" points="331.48 116.04 373.11 84.02 355.38 20.61 314.49 51.22 331.48 116.04"/><polygon class="cls-2" points="266.2 105.12 308.4 73.34 292.17 10.4 250.74 40.79 266.2 105.12"/><polygon class="cls-5" points="230.54 937.74 461 988.49 406.23 95.92 230.53 66.33 230.54 937.74"/><polygon class="cls-5" points="358.5 87.88 406.23 95.92 402.07 28.21 355.48 20.55 358.5 87.88"/><polygon class="cls-5" points="230.53 66.33 277.55 74.24 276.44 7.55 230.53 0 230.53 66.33"/><polygon class="cls-5" points="294.27 77.06 341.64 85.04 339.03 17.84 292.78 10.24 294.27 77.06"/><polygon class="cls-3" points="361.01 347.7 370.22 349.4 365.75 249.65 356.84 248.06 361.01 347.7"/><polygon class="cls-4" points="283.79 333.52 292.91 335.19 290.92 236.34 282.09 234.77 283.79 333.52"/></g></svg>